<svg width="60" height="60" viewBox="0 0 60 60" fill="none" xmlns="http://www.w3.org/2000/svg">
<path d="M6 21L18 55L45 55.5L54.5 22L29 4L6 21Z" fill="#150089"/>
<path d="M27.2532 58.3696L15.0455 46.1956L4 25.8696L12 10.8696L29.6948 5L50.4481 9.86957V47.413L27.2532 58.3696Z" fill="#0028C6"/>
<path d="M53.3473 32.5343L36.5325 10.0253L13.9743 11.8521L3.81063 35.527L26.9768 51.9906L46.6394 46.7594L53.3473 32.5343Z" fill="#0086F3"/>
<path fill-rule="evenodd" clip-rule="evenodd" d="M18 44L23.5 16H36.5L41.5 43H34L33 34.5H26L23.5 44H18ZM33 29.5H26L27.5 21.5L32.5 21L33 29.5Z" fill="white"/>
</svg>
